<svg width="24" height="24" viewBox="0 0 24 24" fill="none" xmlns="http://www.w3.org/2000/svg">
<path d="M12 10V12M12 16V16.01" stroke="black" stroke-width="2" stroke-linecap="round" stroke-linejoin="round"/>
<path d="M5.00001 20H19C19.3263 19.9977 19.6471 19.9156 19.9344 19.7609C20.2217 19.6061 20.4668 19.3834 20.6482 19.1122C20.8297 18.841 20.942 18.5295 20.9755 18.2049C21.0089 17.8803 20.9624 17.5525 20.84 17.25L13.74 5C13.567 4.6874 13.3135 4.42683 13.0058 4.24539C12.698 4.06394 12.3473 3.96825 11.99 3.96825C11.6327 3.96825 11.282 4.06394 10.9743 4.24539C10.6665 4.42683 10.413 4.6874 10.24 5L3.14001 17.25C3.01995 17.5456 2.97234 17.8656 3.00116 18.1833C3.02997 18.501 3.13438 18.8073 3.30566 19.0764C3.47694 19.3456 3.71012 19.5698 3.98573 19.7305C4.26135 19.8912 4.5714 19.9836 4.89001 20" stroke="black" stroke-width="2" stroke-linecap="round" stroke-linejoin="round"/>
</svg>
