<svg width="24" height="24" viewBox="0 0 24 24" fill="none" xmlns="http://www.w3.org/2000/svg">
<path fill-rule="evenodd" clip-rule="evenodd" d="M14 7C14 6.44772 14.4477 6 15 6H16C17.3261 6 18.5979 6.52678 19.5355 7.46447C20.4732 8.40215 21 9.67392 21 11C21 12.3261 20.4732 13.5979 19.5355 14.5355C18.5979 15.4732 17.3261 16 16 16H7.41421L9.70711 18.2929C10.0976 18.6834 10.0976 19.3166 9.70711 19.7071C9.31658 20.0976 8.68342 20.0976 8.29289 19.7071L4.29289 15.7071C3.90237 15.3166 3.90237 14.6834 4.29289 14.2929L8.29289 10.2929C8.68342 9.90237 9.31658 9.90237 9.70711 10.2929C10.0976 10.6834 10.0976 11.3166 9.70711 11.7071L7.41421 14H16C16.7956 14 17.5587 13.6839 18.1213 13.1213C18.6839 12.5587 19 11.7956 19 11C19 10.2044 18.6839 9.44129 18.1213 8.87868C17.5587 8.31607 16.7956 8 16 8H15C14.4477 8 14 7.55228 14 7Z" fill="black"/>
</svg>
