<svg width="24" height="24" viewBox="0 0 24 24" fill="none" xmlns="http://www.w3.org/2000/svg">
<path fill-rule="evenodd" clip-rule="evenodd" d="M17.2929 3.29289C17.6834 2.90237 18.3166 2.90237 18.7071 3.29289L21.7071 6.29289C22.0976 6.68342 22.0976 7.31658 21.7071 7.70711L18.7071 10.7071C18.3166 11.0976 17.6834 11.0976 17.2929 10.7071C16.9024 10.3166 16.9024 9.68342 17.2929 9.29289L19.5858 7L17.2929 4.70711C16.9024 4.31658 16.9024 3.68342 17.2929 3.29289Z" fill="black"/>
<path fill-rule="evenodd" clip-rule="evenodd" d="M17.2929 13.2929C17.6834 12.9024 18.3166 12.9024 18.7071 13.2929L21.7071 16.2929C22.0976 16.6834 22.0976 17.3166 21.7071 17.7071L18.7071 20.7071C18.3166 21.0976 17.6834 21.0976 17.2929 20.7071C16.9024 20.3166 16.9024 19.6834 17.2929 19.2929L19.5858 17L17.2929 14.7071C16.9024 14.3166 16.9024 13.6834 17.2929 13.2929Z" fill="black"/>
<path fill-rule="evenodd" clip-rule="evenodd" d="M2 7C2 6.44772 2.44772 6 3 6H6C7.5913 6 9.11742 6.63214 10.2426 7.75736C11.3679 8.88258 12 10.4087 12 12C12 13.0609 12.4214 14.0783 13.1716 14.8284C13.9217 15.5786 14.9391 16 16 16H21C21.5523 16 22 16.4477 22 17C22 17.5523 21.5523 18 21 18H16C14.4087 18 12.8826 17.3679 11.7574 16.2426C10.6321 15.1174 10 13.5913 10 12C10 10.9391 9.57857 9.92172 8.82843 9.17157C8.07828 8.42143 7.06087 8 6 8H3C2.44772 8 2 7.55228 2 7Z" fill="black"/>
<path fill-rule="evenodd" clip-rule="evenodd" d="M9.79956 15.4004C10.1313 15.842 10.0422 16.4689 9.60059 16.8006C8.56213 17.5806 7.29809 18.0016 5.99931 18H3C2.44772 18 2 17.5523 2 17C2 16.4477 2.44772 16 3 16H6.00134C6.86618 16.0012 7.70792 15.7209 8.39941 15.2014C8.84099 14.8697 9.46786 14.9588 9.79956 15.4004Z" fill="black"/>
<path fill-rule="evenodd" clip-rule="evenodd" d="M12.4014 7.19849C13.4392 6.41878 14.7027 5.9981 16.0008 6.00001H21C21.5523 6.00001 22 6.44772 22 7.00001C22 7.55229 21.5523 8.00001 21 8.00001L15.9984 8.00001C15.1344 7.99862 14.2934 8.27857 13.6026 8.79752C13.1611 9.12925 12.5342 9.04021 12.2025 8.59865C11.8708 8.15709 11.9598 7.53022 12.4014 7.19849Z" fill="black"/>
</svg>
