<svg width="24" height="24" viewBox="0 0 24 24" fill="none" xmlns="http://www.w3.org/2000/svg">
<path fill-rule="evenodd" clip-rule="evenodd" d="M18 16.5858L18 5C18 4.44771 17.5523 4 17 4C16.4477 4 16 4.44771 16 5L16 16.5858L13.7071 14.2929C13.3166 13.9024 12.6834 13.9024 12.2929 14.2929C11.9024 14.6834 11.9024 15.3166 12.2929 15.7071L16.2925 19.7067C16.2924 19.7066 16.2926 19.7068 16.2925 19.7067C16.2932 19.7074 16.2943 19.7085 16.295 19.7092C16.4758 19.8889 16.7249 20 17 20C17.1356 20 17.2649 19.973 17.3828 19.9241C17.5007 19.8753 17.6112 19.803 17.7071 19.7071L21.7071 15.7071C22.0976 15.3166 22.0976 14.6834 21.7071 14.2929C21.3166 13.9024 20.6834 13.9024 20.2929 14.2929L18 16.5858Z" fill="black"/>
<path fill-rule="evenodd" clip-rule="evenodd" d="M6 7.41421V19C6 19.5523 6.44772 20 7 20C7.55228 20 8 19.5523 8 19V7.41421L10.2929 9.70711C10.6834 10.0976 11.3166 10.0976 11.7071 9.70711C12.0976 9.31658 12.0976 8.68342 11.7071 8.29289L7.7075 4.29329C7.70737 4.29316 7.70764 4.29342 7.7075 4.29329C7.7068 4.29258 7.70569 4.29148 7.70498 4.29078C7.52419 4.11106 7.27506 4 7 4C6.86441 4 6.73512 4.02699 6.61722 4.07588C6.49927 4.12468 6.38877 4.19702 6.29289 4.29289L2.29289 8.29289C1.90237 8.68342 1.90237 9.31658 2.29289 9.70711C2.68342 10.0976 3.31658 10.0976 3.70711 9.70711L6 7.41421Z" fill="black"/>
</svg>
