<svg width="24" height="24" viewBox="0 0 24 24" fill="none" xmlns="http://www.w3.org/2000/svg">
<path fill-rule="evenodd" clip-rule="evenodd" d="M15 4C15 3.44772 15.4477 3 16 3H20C20.5523 3 21 3.44772 21 4V8C21 8.55228 20.5523 9 20 9C19.4477 9 19 8.55228 19 8V5H16C15.4477 5 15 4.55228 15 4Z" fill="black"/>
<path fill-rule="evenodd" clip-rule="evenodd" d="M20.7071 3.29289C21.0976 3.68342 21.0976 4.31658 20.7071 4.70711L14.7071 10.7071C14.3166 11.0976 13.6834 11.0976 13.2929 10.7071C12.9024 10.3166 12.9024 9.68342 13.2929 9.29289L19.2929 3.29289C19.6834 2.90237 20.3166 2.90237 20.7071 3.29289Z" fill="black"/>
<path fill-rule="evenodd" clip-rule="evenodd" d="M4 15C4.55228 15 5 15.4477 5 16V19H8C8.55228 19 9 19.4477 9 20C9 20.5523 8.55228 21 8 21H4C3.44772 21 3 20.5523 3 20V16C3 15.4477 3.44772 15 4 15Z" fill="black"/>
<path fill-rule="evenodd" clip-rule="evenodd" d="M10.7071 13.2929C11.0976 13.6834 11.0976 14.3166 10.7071 14.7071L4.70711 20.7071C4.31658 21.0976 3.68342 21.0976 3.29289 20.7071C2.90237 20.3166 2.90237 19.6834 3.29289 19.2929L9.29289 13.2929C9.68342 12.9024 10.3166 12.9024 10.7071 13.2929Z" fill="black"/>
<path fill-rule="evenodd" clip-rule="evenodd" d="M20 15C20.5523 15 21 15.4477 21 16V20C21 20.5523 20.5523 21 20 21H16C15.4477 21 15 20.5523 15 20C15 19.4477 15.4477 19 16 19H19V16C19 15.4477 19.4477 15 20 15Z" fill="black"/>
<path fill-rule="evenodd" clip-rule="evenodd" d="M13.2929 13.2929C13.6834 12.9024 14.3166 12.9024 14.7071 13.2929L20.7071 19.2929C21.0976 19.6834 21.0976 20.3166 20.7071 20.7071C20.3166 21.0976 19.6834 21.0976 19.2929 20.7071L13.2929 14.7071C12.9024 14.3166 12.9024 13.6834 13.2929 13.2929Z" fill="black"/>
<path fill-rule="evenodd" clip-rule="evenodd" d="M3 4C3 3.44772 3.44772 3 4 3H8C8.55228 3 9 3.44772 9 4C9 4.55228 8.55228 5 8 5H5V8C5 8.55228 4.55228 9 4 9C3.44772 9 3 8.55228 3 8V4Z" fill="black"/>
<path fill-rule="evenodd" clip-rule="evenodd" d="M3.29289 3.29289C3.68342 2.90237 4.31658 2.90237 4.70711 3.29289L10.7071 9.29289C11.0976 9.68342 11.0976 10.3166 10.7071 10.7071C10.3166 11.0976 9.68342 11.0976 9.29289 10.7071L3.29289 4.70711C2.90237 4.31658 2.90237 3.68342 3.29289 3.29289Z" fill="black"/>
</svg>
