<svg width="24" height="24" viewBox="0 0 24 24" fill="none" xmlns="http://www.w3.org/2000/svg">
<path fill-rule="evenodd" clip-rule="evenodd" d="M17.7071 18.7071C17.3166 19.0976 16.6834 19.0976 16.2929 18.7071L12 14.4142L7.70711 18.7071C7.31658 19.0976 6.68342 19.0976 6.29289 18.7071C5.90237 18.3166 5.90237 17.6834 6.29289 17.2929L11.2929 12.2929C11.6834 11.9024 12.3166 11.9024 12.7071 12.2929L17.7071 17.2929C18.0976 17.6834 18.0976 18.3166 17.7071 18.7071Z" fill="black"/>
<path fill-rule="evenodd" clip-rule="evenodd" d="M17.7071 12.7071C17.3166 13.0976 16.6834 13.0976 16.2929 12.7071L12 8.41421L7.70711 12.7071C7.31658 13.0976 6.68342 13.0976 6.29289 12.7071C5.90237 12.3166 5.90237 11.6834 6.29289 11.2929L11.2929 6.29289C11.6834 5.90237 12.3166 5.90237 12.7071 6.29289L17.7071 11.2929C18.0976 11.6834 18.0976 12.3166 17.7071 12.7071Z" fill="black"/>
</svg>
