<svg width="24" height="24" viewBox="0 0 24 24" fill="none" xmlns="http://www.w3.org/2000/svg">
<path fill-rule="evenodd" clip-rule="evenodd" d="M5.79289 18.2071C5.40237 17.8166 5.40237 17.1834 5.79289 16.7929L10.0858 12.5L5.79289 8.20711C5.40237 7.81658 5.40237 7.18342 5.79289 6.79289C6.18342 6.40237 6.81658 6.40237 7.20711 6.79289L12.2071 11.7929C12.5976 12.1834 12.5976 12.8166 12.2071 13.2071L7.20711 18.2071C6.81658 18.5976 6.18342 18.5976 5.79289 18.2071Z" fill="black"/>
<path fill-rule="evenodd" clip-rule="evenodd" d="M11.7929 18.2071C11.4024 17.8166 11.4024 17.1834 11.7929 16.7929L16.0858 12.5L11.7929 8.20711C11.4024 7.81658 11.4024 7.18342 11.7929 6.79289C12.1834 6.40237 12.8166 6.40237 13.2071 6.79289L18.2071 11.7929C18.5976 12.1834 18.5976 12.8166 18.2071 13.2071L13.2071 18.2071C12.8166 18.5976 12.1834 18.5976 11.7929 18.2071Z" fill="black"/>
</svg>
