<svg width="24" height="24" viewBox="0 0 24 24" fill="none" xmlns="http://www.w3.org/2000/svg">
<path fill-rule="evenodd" clip-rule="evenodd" d="M18.2071 6.79289C18.5976 7.18342 18.5976 7.81658 18.2071 8.20711L13.9142 12.5L18.2071 16.7929C18.5976 17.1834 18.5976 17.8166 18.2071 18.2071C17.8166 18.5976 17.1834 18.5976 16.7929 18.2071L11.7929 13.2071C11.4024 12.8166 11.4024 12.1834 11.7929 11.7929L16.7929 6.79289C17.1834 6.40237 17.8166 6.40237 18.2071 6.79289Z" fill="black"/>
<path fill-rule="evenodd" clip-rule="evenodd" d="M12.2071 6.79289C12.5976 7.18342 12.5976 7.81658 12.2071 8.20711L7.91421 12.5L12.2071 16.7929C12.5976 17.1834 12.5976 17.8166 12.2071 18.2071C11.8166 18.5976 11.1834 18.5976 10.7929 18.2071L5.79289 13.2071C5.40237 12.8166 5.40237 12.1834 5.79289 11.7929L10.7929 6.79289C11.1834 6.40237 11.8166 6.40237 12.2071 6.79289Z" fill="black"/>
</svg>
