<svg width="24" height="24" viewBox="0 0 24 24" fill="none" xmlns="http://www.w3.org/2000/svg">
<path d="M2 4.99996V19C2 19.86 3.012 20.318 3.659 19.753L11.659 12.753C11.7664 12.6591 11.8525 12.5433 11.9115 12.4135C11.9705 12.2836 12.001 12.1426 12.001 12C12.001 11.8573 11.9705 11.7163 11.9115 11.5864C11.8525 11.4566 11.7664 11.3408 11.659 11.247L3.659 4.24696C3.012 3.68196 2 4.14096 2 4.99996Z" fill="black"/>
<path d="M13 4.99996V19C13 19.86 14.012 20.318 14.659 19.753L22.659 12.753C22.7664 12.6591 22.8525 12.5433 22.9115 12.4135C22.9705 12.2836 23.001 12.1426 23.001 12C23.001 11.8573 22.9705 11.7163 22.9115 11.5864C22.8525 11.4566 22.7664 11.3408 22.659 11.247L14.659 4.24696C14.012 3.68196 13 4.14096 13 4.99996Z" fill="black"/>
</svg>
