<svg width="24" height="24" viewBox="0 0 24 24" fill="none" xmlns="http://www.w3.org/2000/svg">
<path fill-rule="evenodd" clip-rule="evenodd" d="M2.58678 4.08938C2.94409 3.92725 3.36321 3.98906 3.6585 4.24744L11.6585 11.2474C11.8755 11.4373 12 11.7117 12 12C12 12.2884 11.8755 12.5627 11.6585 12.7526L3.6585 19.7526C3.36321 20.011 2.94409 20.0728 2.58678 19.9106C2.22947 19.7485 2 19.3924 2 19V5.00002C2 4.60764 2.22947 4.25152 2.58678 4.08938ZM4 7.20378V16.7962L9.48141 12L4 7.20378Z" fill="black"/>
<path fill-rule="evenodd" clip-rule="evenodd" d="M13.5868 4.08938C13.9441 3.92725 14.3632 3.98906 14.6585 4.24744L22.6585 11.2474C22.8755 11.4373 23 11.7117 23 12C23 12.2884 22.8755 12.5627 22.6585 12.7526L14.6585 19.7526C14.3632 20.011 13.9441 20.0728 13.5868 19.9106C13.2295 19.7485 13 19.3924 13 19V5.00002C13 4.60764 13.2295 4.25152 13.5868 4.08938ZM15 7.20378V16.7962L20.4814 12L15 7.20378Z" fill="black"/>
</svg>
