<svg width="24" height="24" viewBox="0 0 24 24" fill="none" xmlns="http://www.w3.org/2000/svg">
<path fill-rule="evenodd" clip-rule="evenodd" d="M6 14C5.44772 14 5 14.4477 5 15V18C5 18.5523 5.44772 19 6 19H7C7.55228 19 8 18.5523 8 18V15C8 14.4477 7.55228 14 7 14H6ZM3 15C3 13.3431 4.34315 12 6 12H7C8.65685 12 10 13.3431 10 15V18C10 19.6569 8.65685 21 7 21H6C4.34315 21 3 19.6569 3 18V15Z" fill="black"/>
<path fill-rule="evenodd" clip-rule="evenodd" d="M17 14C16.4477 14 16 14.4477 16 15V18C16 18.5523 16.4477 19 17 19H18C18.5523 19 19 18.5523 19 18V15C19 14.4477 18.5523 14 18 14H17ZM14 15C14 13.3431 15.3431 12 17 12H18C19.6569 12 21 13.3431 21 15V18C21 19.6569 19.6569 21 18 21H17C15.3431 21 14 19.6569 14 18V15Z" fill="black"/>
<path fill-rule="evenodd" clip-rule="evenodd" d="M12 5C10.1435 5 8.36301 5.7375 7.05025 7.05025C5.7375 8.36301 5 10.1435 5 12V15C5 15.5523 4.55228 16 4 16C3.44772 16 3 15.5523 3 15V12C3 9.61305 3.94821 7.32387 5.63604 5.63604C7.32387 3.94821 9.61305 3 12 3C14.3869 3 16.6761 3.94821 18.364 5.63604C20.0518 7.32387 21 9.61305 21 12V15C21 15.5523 20.5523 16 20 16C19.4477 16 19 15.5523 19 15V12C19 10.1435 18.2625 8.36301 16.9497 7.05025C15.637 5.7375 13.8565 5 12 5Z" fill="black"/>
</svg>
