<svg width="24" height="24" viewBox="0 0 24 24" fill="none" xmlns="http://www.w3.org/2000/svg">
<path d="M4.00977 11C4.56205 11 5.00977 11.4477 5.00977 12C5.00977 12.5523 4.56205 13 4.00977 13H4C3.44772 13 3 12.5523 3 12C3 11.4477 3.44772 11 4 11H4.00977Z" fill="black"/>
<path d="M4.00977 5C4.56205 5 5.00977 5.44772 5.00977 6C5.00977 6.55228 4.56205 7 4.00977 7H4C3.44772 7 3 6.55228 3 6C3 5.44772 3.44772 5 4 5H4.00977Z" fill="black"/>
<path d="M4.00977 17C4.56205 17 5.00977 17.4477 5.00977 18C5.00977 18.5523 4.56205 19 4.00977 19H4C3.44772 19 3 18.5523 3 18C3 17.4477 3.44772 17 4 17H4.00977Z" fill="black"/>
<path d="M10 17C10.5523 17 11 17.4477 11 18C11 18.5523 10.5523 19 10 19H8C7.44772 19 7 18.5523 7 18C7 17.4477 7.44772 17 8 17H10Z" fill="black"/>
<path d="M10 11C10.5523 11 11 11.4477 11 12C11 12.5523 10.5523 13 10 13H8C7.44772 13 7 12.5523 7 12C7 11.4477 7.44772 11 8 11H10Z" fill="black"/>
<path d="M10 5C10.5523 5 11 5.44772 11 6C11 6.55228 10.5523 7 10 7H8C7.44772 7 7 6.55228 7 6C7 5.44772 7.44772 5 8 5H10Z" fill="black"/>
<path d="M20 5C20.5523 5 21 5.44772 21 6C21 6.55228 20.5523 7 20 7H14C13.4477 7 13 6.55228 13 6C13 5.44772 13.4477 5 14 5H20Z" fill="black"/>
<path d="M20 11C20.5523 11 21 11.4477 21 12C21 12.5523 20.5523 13 20 13H14C13.4477 13 13 12.5523 13 12C13 11.4477 13.4477 11 14 11H20Z" fill="black"/>
<path d="M20 17C20.5523 17 21 17.4477 21 18C21 18.5523 20.5523 19 20 19H14C13.4477 19 13 18.5523 13 18C13 17.4477 13.4477 17 14 17H20Z" fill="black"/>
</svg>
