<svg width="24" height="24" viewBox="0 0 24 24" fill="none" xmlns="http://www.w3.org/2000/svg">
<path fill-rule="evenodd" clip-rule="evenodd" d="M12 3C10.8954 3 10 3.89543 10 5V10C10 11.1046 10.8954 12 12 12C13.1046 12 14 11.1046 14 10V5C14 3.89543 13.1046 3 12 3ZM8 5C8 2.79086 9.79086 1 12 1C14.2091 1 16 2.79086 16 5V10C16 12.2091 14.2091 14 12 14C9.79086 14 8 12.2091 8 10V5Z" fill="black"/>
<path fill-rule="evenodd" clip-rule="evenodd" d="M5 9C5.55228 9 6 9.44771 6 10C6 11.5913 6.63214 13.1174 7.75736 14.2426C8.88258 15.3679 10.4087 16 12 16C13.5913 16 15.1174 15.3679 16.2426 14.2426C17.3679 13.1174 18 11.5913 18 10C18 9.44771 18.4477 9 19 9C19.5523 9 20 9.44772 20 10C20 12.1217 19.1571 14.1566 17.6569 15.6569C16.1566 17.1571 14.1217 18 12 18C9.87827 18 7.84344 17.1571 6.34315 15.6569C4.84285 14.1566 4 12.1217 4 10C4 9.44772 4.44772 9 5 9Z" fill="black"/>
<path fill-rule="evenodd" clip-rule="evenodd" d="M7 21C7 20.4477 7.44772 20 8 20H16C16.5523 20 17 20.4477 17 21C17 21.5523 16.5523 22 16 22H8C7.44772 22 7 21.5523 7 21Z" fill="black"/>
<path fill-rule="evenodd" clip-rule="evenodd" d="M12 16C12.5523 16 13 16.4477 13 17V21C13 21.5523 12.5523 22 12 22C11.4477 22 11 21.5523 11 21V17C11 16.4477 11.4477 16 12 16Z" fill="black"/>
</svg>
