<svg width="24" height="24" viewBox="0 0 24 24" fill="none" xmlns="http://www.w3.org/2000/svg">
<path fill-rule="evenodd" clip-rule="evenodd" d="M2.29289 2.29289C2.68342 1.90237 3.31658 1.90237 3.70711 2.29289L21.7071 20.2929C22.0976 20.6834 22.0976 21.3166 21.7071 21.7071C21.3166 22.0976 20.6834 22.0976 20.2929 21.7071L2.29289 3.70711C1.90237 3.31658 1.90237 2.68342 2.29289 2.29289Z" fill="black"/>
<path fill-rule="evenodd" clip-rule="evenodd" d="M12 3C11.4696 3 10.9609 3.21071 10.5858 3.58579C10.2107 3.96086 10 4.46957 10 5C10 5.55228 9.55228 6 9 6C8.44772 6 8 5.55228 8 5C8 3.93913 8.42143 2.92172 9.17157 2.17157C9.92172 1.42143 10.9391 1 12 1C13.0609 1 14.0783 1.42143 14.8284 2.17157C15.5786 2.92172 16 3.93913 16 5V9.99985C16 10.3947 15.9416 10.7875 15.8267 11.1652C15.6658 11.6935 15.1072 11.9915 14.5788 11.8307C14.0505 11.6698 13.7525 11.1112 13.9133 10.5828C13.9708 10.3939 14 10.1976 14 10.0001V5C14 4.46957 13.7893 3.96086 13.4142 3.58579C13.0391 3.21071 12.5304 3 12 3ZM9 8.002C9.55228 8.002 10 8.44972 10 9.002V10.002C9.9999 10.3143 10.0729 10.6226 10.2133 10.9016C10.3536 11.1806 10.5573 11.4229 10.8081 11.609C11.0589 11.7951 11.3498 11.9199 11.6575 11.9734C11.9652 12.0269 12.2811 12.0075 12.58 11.917C13.1086 11.7568 13.6669 12.0554 13.827 12.584C13.9872 13.1126 13.6886 13.6709 13.16 13.831C12.5622 14.0122 11.9304 14.0508 11.315 13.9438C10.6996 13.8369 10.1178 13.5873 9.61623 13.215C9.11466 12.8428 8.70722 12.3583 8.42656 11.8003C8.14594 11.2424 7.99986 10.6265 8 10.002V9.002C8 8.44972 8.44772 8.002 9 8.002Z" fill="black"/>
<path fill-rule="evenodd" clip-rule="evenodd" d="M5.00017 9C5.55246 9.0001 6.0001 9.44789 6 10.0002C5.99981 11.083 6.29268 12.1458 6.84755 13.0757C7.40243 14.0056 8.19861 14.768 9.15168 15.282C10.1048 15.7961 11.1792 16.0426 12.261 15.9955C13.3429 15.9484 14.3918 15.6094 15.2966 15.0145C15.758 14.711 16.3781 14.8391 16.6815 15.3006C16.985 15.762 16.8569 16.3821 16.3954 16.6855C15.1891 17.4788 13.7905 17.9308 12.348 17.9936C10.9056 18.0565 9.47301 17.7277 8.20225 17.0423C6.93148 16.3569 5.8699 15.3404 5.13007 14.1005C4.39024 12.8606 3.99975 11.4436 4 9.99983C4.0001 9.44754 4.44789 8.9999 5.00017 9ZM18.9982 9C19.5505 8.999 19.999 9.4459 20 9.99818C20.0028 11.5633 19.5447 13.0945 18.6826 14.4008C18.3785 14.8617 17.7582 14.9888 17.2972 14.6846C16.8363 14.3805 16.7092 13.7602 17.0134 13.2992C17.659 12.3209 18.0021 11.174 18 10.0018C17.999 9.44954 18.4459 9.00101 18.9982 9Z" fill="black"/>
<path fill-rule="evenodd" clip-rule="evenodd" d="M7 21C7 20.4477 7.44772 20 8 20H16C16.5523 20 17 20.4477 17 21C17 21.5523 16.5523 22 16 22H8C7.44772 22 7 21.5523 7 21Z" fill="black"/>
<path fill-rule="evenodd" clip-rule="evenodd" d="M12 16C12.5523 16 13 16.4477 13 17V21C13 21.5523 12.5523 22 12 22C11.4477 22 11 21.5523 11 21V17C11 16.4477 11.4477 16 12 16Z" fill="black"/>
</svg>
