<svg width="24" height="24" viewBox="0 0 24 24" fill="none" xmlns="http://www.w3.org/2000/svg">
<path fill-rule="evenodd" clip-rule="evenodd" d="M13.157 2.71623C14.2927 2.10537 15.5951 1.8767 16.871 2.06411C18.1469 2.25152 19.3285 2.84504 20.2406 3.75669C21.1527 4.66835 21.7469 5.84962 21.9349 7.12544C22.123 8.40126 21.895 9.70372 21.2847 10.8398C20.6744 11.9758 19.7144 12.8851 18.5468 13.4326C17.3792 13.9802 16.0663 14.1371 14.8026 13.8799C14.2614 13.7698 13.912 13.2418 14.0221 12.7006C14.1322 12.1594 14.6602 11.8099 15.2014 11.9201C16.0439 12.0915 16.9192 11.987 17.6976 11.6219C18.4759 11.2568 19.116 10.6507 19.5228 9.89333C19.9297 9.13595 20.0817 8.26764 19.9563 7.4171C19.8309 6.56655 19.4349 5.77904 18.8268 5.17127C18.2187 4.5635 17.431 4.16782 16.5804 4.04288C15.7298 3.91794 14.8615 4.07039 14.1044 4.47763C13.3472 4.88487 12.7414 5.52522 12.3767 6.30379C12.012 7.08236 11.9079 7.9577 12.0798 8.80008C12.1902 9.34122 11.8411 9.8694 11.2999 9.97981C10.7588 10.0902 10.2306 9.74105 10.1202 9.19991C9.86238 7.93634 10.0185 6.62333 10.5655 5.45548C11.1125 4.28763 12.0212 3.32709 13.157 2.71623Z" fill="black"/>
<path fill-rule="evenodd" clip-rule="evenodd" d="M11.0666 8.00155C11.3431 7.99231 11.6111 8.09805 11.8068 8.29362L15.7088 12.1926L15.002 12.9L15.6605 13.6526L7.09487 21.148C6.53455 21.6943 5.78245 22.0005 4.99891 22C4.60494 21.9998 4.21486 21.922 3.85096 21.7711C3.48706 21.6201 3.15645 21.399 2.87802 21.1202C2.59959 20.8415 2.37878 20.5107 2.22821 20.1466C2.07763 19.7825 2.00024 19.3924 2.00045 18.9984C2.00087 18.215 2.30765 17.4634 2.85435 16.9037L10.3475 8.34239C10.5297 8.13419 10.7901 8.0108 11.0666 8.00155ZM13.5388 12.8516L11.1489 10.4635L4.33949 18.2436C4.32479 18.2604 4.30953 18.2767 4.29373 18.2925C4.10609 18.4799 4.00059 18.7342 4.00045 18.9995C4.00038 19.1308 4.02618 19.2609 4.07637 19.3822C4.12656 19.5036 4.20017 19.6139 4.29298 19.7068C4.3858 19.7997 4.496 19.8734 4.61731 19.9237C4.73861 19.974 4.86864 20 4.99997 20C5.2652 20.0002 5.51963 19.895 5.70727 19.7075C5.72284 19.692 5.73891 19.6769 5.75547 19.6624L13.5388 12.8516Z" fill="black"/>
</svg>
