<svg width="24" height="24" viewBox="0 0 24 24" fill="none" xmlns="http://www.w3.org/2000/svg">
<path fill-rule="evenodd" clip-rule="evenodd" d="M6 15C4.89543 15 4 15.8954 4 17C4 18.1046 4.89543 19 6 19C7.10457 19 8 18.1046 8 17C8 15.8954 7.10457 15 6 15ZM2 17C2 14.7909 3.79086 13 6 13C8.20914 13 10 14.7909 10 17C10 19.2091 8.20914 21 6 21C3.79086 21 2 19.2091 2 17Z" fill="black"/>
<path fill-rule="evenodd" clip-rule="evenodd" d="M15.2698 13.9229C15.5609 14.3922 15.4165 15.0087 14.9471 15.2998C14.6907 15.4589 14.4735 15.674 14.312 15.9289C14.1504 16.1839 14.0487 16.4721 14.0144 16.772C13.9801 17.0718 14.0141 17.3756 14.1138 17.6604C14.2136 17.9453 14.3765 18.2039 14.5904 18.4168C14.8044 18.6297 15.0637 18.7915 15.349 18.8899C15.6343 18.9884 15.9382 19.021 16.2379 18.9853C16.5376 18.9496 16.8254 18.8466 17.0796 18.6838C17.3338 18.5211 17.5479 18.303 17.7058 18.0458C17.9948 17.5751 18.6106 17.4278 19.0812 17.7168C19.5519 18.0058 19.6992 18.6216 19.4102 19.0922C19.0944 19.6066 18.6662 20.0429 18.1578 20.3683C17.6493 20.6938 17.0739 20.8999 16.4744 20.9713C15.875 21.0427 15.2672 20.9775 14.6966 20.7806C14.126 20.5836 13.6073 20.2601 13.1795 19.8343C12.7517 19.4084 12.4258 18.8912 12.2262 18.3215C12.0267 17.7518 11.9587 17.1443 12.0273 16.5446C12.096 15.9449 12.2994 15.3684 12.6225 14.8585C12.9456 14.3486 13.3799 13.9184 13.8929 13.6002C14.3622 13.3091 14.9787 13.4535 15.2698 13.9229Z" fill="black"/>
<path fill-rule="evenodd" clip-rule="evenodd" d="M8 4C8 3.44772 8.44772 3 9 3H19C19.5523 3 20 3.44772 20 4V15C20 15.5523 19.5523 16 19 16C18.4477 16 18 15.5523 18 15V5H10C10 5.55228 9.55228 6 9 6C8.44772 6 8 5.55228 8 5V4ZM9 8C9.55228 8 10 8.44772 10 9V17C10 17.5523 9.55228 18 9 18C8.44772 18 8 17.5523 8 17V9C8 8.44772 8.44772 8 9 8Z" fill="black"/>
<path fill-rule="evenodd" clip-rule="evenodd" d="M11 8C11 7.44772 11.4477 7 12 7H19C19.5523 7 20 7.44772 20 8C20 8.55228 19.5523 9 19 9H12C11.4477 9 11 8.55228 11 8Z" fill="black"/>
<path fill-rule="evenodd" clip-rule="evenodd" d="M2.29289 2.29289C2.68342 1.90237 3.31658 1.90237 3.70711 2.29289L21.7071 20.2929C22.0976 20.6834 22.0976 21.3166 21.7071 21.7071C21.3166 22.0976 20.6834 22.0976 20.2929 21.7071L2.29289 3.70711C1.90237 3.31658 1.90237 2.68342 2.29289 2.29289Z" fill="black"/>
</svg>
