<svg width="24" height="24" viewBox="0 0 24 24" fill="none" xmlns="http://www.w3.org/2000/svg">
<path fill-rule="evenodd" clip-rule="evenodd" d="M6 15C4.89543 15 4 15.8954 4 17C4 18.1046 4.89543 19 6 19C7.10457 19 8 18.1046 8 17C8 15.8954 7.10457 15 6 15ZM2 17C2 14.7909 3.79086 13 6 13C8.20914 13 10 14.7909 10 17C10 19.2091 8.20914 21 6 21C3.79086 21 2 19.2091 2 17Z" fill="black"/>
<path fill-rule="evenodd" clip-rule="evenodd" d="M16 15C14.8954 15 14 15.8954 14 17C14 18.1046 14.8954 19 16 19C17.1046 19 18 18.1046 18 17C18 15.8954 17.1046 15 16 15ZM12 17C12 14.7909 13.7909 13 16 13C18.2091 13 20 14.7909 20 17C20 19.2091 18.2091 21 16 21C13.7909 21 12 19.2091 12 17Z" fill="black"/>
<path fill-rule="evenodd" clip-rule="evenodd" d="M8 4C8 3.44772 8.44772 3 9 3H19C19.5523 3 20 3.44772 20 4V17C20 17.5523 19.5523 18 19 18C18.4477 18 18 17.5523 18 17V5H10V17C10 17.5523 9.55228 18 9 18C8.44772 18 8 17.5523 8 17V4Z" fill="black"/>
<path fill-rule="evenodd" clip-rule="evenodd" d="M8 8C8 7.44772 8.44772 7 9 7H19C19.5523 7 20 7.44772 20 8C20 8.55228 19.5523 9 19 9H9C8.44772 9 8 8.55228 8 8Z" fill="black"/>
</svg>
