<svg width="24" height="24" viewBox="0 0 24 24" fill="none" xmlns="http://www.w3.org/2000/svg">
<path fill-rule="evenodd" clip-rule="evenodd" d="M3.50194 4.13286C3.81243 3.95452 4.19458 3.9558 4.50387 4.13622L16.5039 11.1362C16.8111 11.3154 17 11.6443 17 12C17 12.3557 16.8111 12.6846 16.5039 12.8638L4.50387 19.8638C4.19458 20.0442 3.81243 20.0455 3.50194 19.8671C3.19145 19.6888 3 19.3581 3 19V5C3 4.64193 3.19145 4.3112 3.50194 4.13286ZM5 6.74104V17.259L14.0154 12L5 6.74104Z" fill="black"/>
<path fill-rule="evenodd" clip-rule="evenodd" d="M20 4C20.5523 4 21 4.44772 21 5V19C21 19.5523 20.5523 20 20 20C19.4477 20 19 19.5523 19 19V5C19 4.44772 19.4477 4 20 4Z" fill="black"/>
</svg>
