<svg width="24" height="24" viewBox="0 0 24 24" fill="none" xmlns="http://www.w3.org/2000/svg">
<path fill-rule="evenodd" clip-rule="evenodd" d="M5.58579 4.58579C5.96086 4.21071 6.46957 4 7 4H9C9.53043 4 10.0391 4.21071 10.4142 4.58579C10.7893 4.96086 11 5.46957 11 6V18C11 18.5304 10.7893 19.0391 10.4142 19.4142C10.0391 19.7893 9.53043 20 9 20H7C6.46957 20 5.96086 19.7893 5.58579 19.4142C5.21071 19.0391 5 18.5304 5 18V6C5 5.46957 5.21071 4.96086 5.58579 4.58579ZM9 6L7 6L7 18H9V6Z" fill="black"/>
<path fill-rule="evenodd" clip-rule="evenodd" d="M13.5858 4.58579C13.9609 4.21071 14.4696 4 15 4H17C17.5304 4 18.0391 4.21071 18.4142 4.58579C18.7893 4.96086 19 5.46957 19 6V18C19 18.5304 18.7893 19.0391 18.4142 19.4142C18.0391 19.7893 17.5304 20 17 20H15C14.4696 20 13.9609 19.7893 13.5858 19.4142C13.2107 19.0391 13 18.5304 13 18V6C13 5.46957 13.2107 4.96086 13.5858 4.58579ZM17 6H15L15 18H17L17 6Z" fill="black"/>
</svg>
