<svg width="24" height="24" viewBox="0 0 24 24" fill="none" xmlns="http://www.w3.org/2000/svg">
<path fill-rule="evenodd" clip-rule="evenodd" d="M14 15C12.8954 15 12 15.8954 12 17C12 18.1046 12.8954 19 14 19C15.1046 19 16 18.1046 16 17C16 15.8954 15.1046 15 14 15ZM10 17C10 14.7909 11.7909 13 14 13C16.2091 13 18 14.7909 18 17C18 19.2091 16.2091 21 14 21C11.7909 21 10 19.2091 10 17Z" fill="black"/>
<path fill-rule="evenodd" clip-rule="evenodd" d="M16 4C16 3.44772 16.4477 3 17 3H21C21.5523 3 22 3.44772 22 4C22 4.55228 21.5523 5 21 5H18V17C18 17.5523 17.5523 18 17 18C16.4477 18 16 17.5523 16 17V4Z" fill="black"/>
<path fill-rule="evenodd" clip-rule="evenodd" d="M2 5C2 4.44772 2.44772 4 3 4H13C13.5523 4 14 4.44772 14 5C14 5.55228 13.5523 6 13 6H3C2.44772 6 2 5.55228 2 5Z" fill="black"/>
<path fill-rule="evenodd" clip-rule="evenodd" d="M2 9C2 8.44772 2.44772 8 3 8H13C13.5523 8 14 8.44772 14 9C14 9.55228 13.5523 10 13 10H3C2.44772 10 2 9.55228 2 9Z" fill="black"/>
<path fill-rule="evenodd" clip-rule="evenodd" d="M2 13C2 12.4477 2.44772 12 3 12H9C9.55228 12 10 12.4477 10 13C10 13.5523 9.55228 14 9 14H3C2.44772 14 2 13.5523 2 13Z" fill="black"/>
</svg>
