<svg width="24" height="24" viewBox="0 0 24 24" fill="none" xmlns="http://www.w3.org/2000/svg">
<path d="M6 3.99998V20C5.99995 20.1779 6.04737 20.3526 6.13738 20.5061C6.22739 20.6596 6.35672 20.7863 6.51202 20.8731C6.66733 20.9599 6.84299 21.0038 7.02088 21C7.19878 20.9963 7.37245 20.9452 7.524 20.852L20.524 12.852C20.6696 12.7625 20.7898 12.6372 20.8733 12.4881C20.9567 12.3389 21.0005 12.1709 21.0005 12C21.0005 11.8291 20.9567 11.661 20.8733 11.5119C20.7898 11.3627 20.6696 11.2374 20.524 11.148L7.524 3.14798C7.37245 3.05474 7.19878 3.00363 7.02088 2.99991C6.84299 2.9962 6.66733 3.04001 6.51202 3.12684C6.35672 3.21366 6.22739 3.34035 6.13738 3.49384C6.04737 3.64733 5.99995 3.82205 6 3.99998Z" fill="black"/>
</svg>
