<svg width="24" height="24" viewBox="0 0 24 24" fill="none" xmlns="http://www.w3.org/2000/svg">
<path fill-rule="evenodd" clip-rule="evenodd" d="M20.4981 4.13286C20.8086 4.3112 21 4.64193 21 5V19C21 19.3581 20.8086 19.6888 20.4981 19.8671C20.1876 20.0455 19.8054 20.0442 19.4961 19.8638L7.49613 12.8638C7.18891 12.6846 7 12.3557 7 12C7 11.6443 7.18891 11.3154 7.49613 11.1362L19.4961 4.13622C19.8054 3.9558 20.1876 3.95452 20.4981 4.13286ZM9.98464 12L19 17.259V6.74104L9.98464 12Z" fill="black"/>
<path fill-rule="evenodd" clip-rule="evenodd" d="M4 4C4.55228 4 5 4.44772 5 5V19C5 19.5523 4.55228 20 4 20C3.44772 20 3 19.5523 3 19V5C3 4.44772 3.44772 4 4 4Z" fill="black"/>
</svg>
