<svg width="24" height="24" viewBox="0 0 24 24" fill="none" xmlns="http://www.w3.org/2000/svg">
<path d="M19.496 4.13599L7.496 11.136C7.34492 11.224 7.21958 11.3501 7.13246 11.5017C7.04534 11.6533 6.99949 11.8251 6.99949 12C6.99949 12.1748 7.04534 12.3466 7.13246 12.4982C7.21958 12.6498 7.34492 12.776 7.496 12.864L19.496 19.864C19.648 19.9527 19.8206 19.9997 19.9966 20.0003C20.1726 20.0009 20.3456 19.955 20.4981 19.8674C20.6507 19.7797 20.7774 19.6534 20.8656 19.5011C20.9537 19.3488 21 19.1759 21 19V4.99999C21 4.82404 20.9537 4.65118 20.8656 4.49889C20.7774 4.34659 20.6507 4.22024 20.4981 4.13259C20.3456 4.04494 20.1726 3.9991 19.9966 3.9997C19.8206 4.0003 19.648 4.04731 19.496 4.13599Z" fill="black"/>
<path d="M4 4C4.24493 4.00003 4.48134 4.08996 4.66437 4.25272C4.84741 4.41547 4.96434 4.63975 4.993 4.883L5 5V19C4.99972 19.2549 4.90212 19.5 4.72715 19.6854C4.55218 19.8707 4.31305 19.9822 4.05861 19.9972C3.80416 20.0121 3.55362 19.9293 3.35817 19.7657C3.16271 19.6021 3.0371 19.3701 3.007 19.117L3 19V5C3 4.73478 3.10536 4.48043 3.29289 4.29289C3.48043 4.10536 3.73478 4 4 4Z" fill="black"/>
</svg>
