<svg width="24" height="24" viewBox="0 0 24 24" fill="none" xmlns="http://www.w3.org/2000/svg">
<path fill-rule="evenodd" clip-rule="evenodd" d="M7.42497 4.23531C9.15332 3.23682 11.162 2.83429 13.1416 3.08973C15.1213 3.34516 16.962 4.24439 18.3803 5.6489C19.7986 7.0534 20.7157 8.88526 20.9905 10.8623C21.0665 11.4093 20.6847 11.9144 20.1376 11.9904C19.5906 12.0665 19.0855 11.6846 19.0095 11.1376C18.7952 9.59508 18.0796 8.16582 16.973 7.07C15.8664 5.97417 14.4302 5.27258 12.8857 5.07328C11.3412 4.87399 9.77393 5.18805 8.42544 5.96709C7.53816 6.47968 6.77797 7.17486 6.19115 7.99995H8C8.55229 7.99995 9 8.44767 9 8.99995C9 9.55224 8.55229 9.99995 8 9.99995H4.52237C4.50722 10.0003 4.49203 10.0003 4.47682 9.99995H4C3.44772 9.99995 3 9.55224 3 8.99995V4.99995C3 4.44767 3.44772 3.99995 4 3.99995C4.55229 3.99995 5 4.44767 5 4.99995V6.27281C5.67856 5.46243 6.4976 4.77106 7.42497 4.23531Z" fill="black"/>
<path fill-rule="evenodd" clip-rule="evenodd" d="M3.86235 12.0095C4.40938 11.9334 4.91446 12.3153 4.99048 12.8623C5.20485 14.4048 5.92043 15.8341 7.02701 16.9299C8.13358 18.0257 9.56976 18.7273 11.1143 18.9266C12.6588 19.1259 14.2261 18.8119 15.5746 18.0328C16.4618 17.5202 17.222 16.825 17.8088 16H16C15.4477 16 15 15.5522 15 15C15 14.4477 15.4477 14 16 14H19.4776C19.4928 13.9996 19.508 13.9996 19.5232 14H20C20.5523 14 21 14.4477 21 15V19C21 19.5522 20.5523 20 20 20C19.4477 20 19 19.5522 19 19V17.7271C18.3214 18.5375 17.5024 19.2288 16.575 19.7646C14.8467 20.7631 12.838 21.1656 10.8584 20.9102C8.87873 20.6547 7.038 19.7555 5.61972 18.351C4.20143 16.9465 3.28427 15.1146 3.00952 13.1376C2.9335 12.5906 3.31532 12.0855 3.86235 12.0095Z" fill="black"/>
</svg>
