<svg width="24" height="24" viewBox="0 0 24 24" fill="none" xmlns="http://www.w3.org/2000/svg">
<path d="M19.933 13.0409C19.7442 14.4809 19.1669 15.8422 18.2632 16.9791C17.3594 18.1159 16.1633 18.9853 14.803 19.4939C13.4427 20.0026 11.9696 20.1314 10.5417 19.8665C9.11374 19.6016 7.78486 18.953 6.69755 17.9902C5.61024 17.0275 4.80551 15.7869 4.36967 14.4015C3.93383 13.0162 3.88332 11.5384 4.22355 10.1265C4.56379 8.71462 5.28194 7.422 6.30097 6.38726C7.32001 5.35251 8.6015 4.61468 10.008 4.2529C13.907 3.2509 17.943 5.2599 19.433 8.9999" stroke="black" stroke-width="2" stroke-linecap="round" stroke-linejoin="round"/>
<path fill-rule="evenodd" clip-rule="evenodd" d="M20 3C20.5523 3 21 3.44772 21 4V9C21 9.55228 20.5523 10 20 10H15C14.4477 10 14 9.55228 14 9C14 8.44772 14.4477 8 15 8H19V4C19 3.44772 19.4477 3 20 3Z" fill="black"/>
</svg>
