<svg width="24" height="24" viewBox="0 0 24 24" fill="none" xmlns="http://www.w3.org/2000/svg">
<path d="M20.341 4.24703L12.341 11.247C12.2336 11.3409 12.1475 11.4566 12.0885 11.5865C12.0295 11.7164 11.999 11.8574 11.999 12C11.999 12.1427 12.0295 12.2837 12.0885 12.4135C12.1475 12.5434 12.2336 12.6592 12.341 12.753L20.341 19.753C20.988 20.318 22 19.859 22 19V5.00003C22 4.14003 20.988 3.68203 20.341 4.24703Z" fill="black"/>
<path d="M9.341 4.24703L1.341 11.247C1.23359 11.3409 1.14751 11.4566 1.08852 11.5865C1.02954 11.7164 0.999023 11.8574 0.999023 12C0.999023 12.1427 1.02954 12.2837 1.08852 12.4135C1.14751 12.5434 1.23359 12.6592 1.341 12.753L9.341 19.753C9.988 20.318 11 19.859 11 19V5.00003C11 4.14003 9.988 3.68203 9.341 4.24703Z" fill="black"/>
</svg>
