<svg width="24" height="24" viewBox="0 0 24 24" fill="none" xmlns="http://www.w3.org/2000/svg">
<path fill-rule="evenodd" clip-rule="evenodd" d="M21.4132 4.08938C21.7705 4.25152 22 4.60764 22 5.00002V19C22 19.3924 21.7705 19.7485 21.4132 19.9106C21.0559 20.0728 20.6368 20.011 20.3415 19.7526L12.3415 12.7526C12.1245 12.5627 12 12.2884 12 12C12 11.7117 12.1245 11.4373 12.3415 11.2474L20.3415 4.24744C20.6368 3.98906 21.0559 3.92725 21.4132 4.08938ZM14.5186 12L20 16.7962V7.20378L14.5186 12Z" fill="black"/>
<path fill-rule="evenodd" clip-rule="evenodd" d="M10.4132 4.08938C10.7705 4.25152 11 4.60764 11 5.00002V19C11 19.3924 10.7705 19.7485 10.4132 19.9106C10.0559 20.0728 9.63679 20.011 9.3415 19.7526L1.3415 12.7526C1.12448 12.5627 1 12.2884 1 12C1 11.7117 1.12448 11.4373 1.3415 11.2474L9.3415 4.24744C9.63679 3.98906 10.0559 3.92725 10.4132 4.08938ZM3.51859 12L9 16.7962V7.20378L3.51859 12Z" fill="black"/>
</svg>
