<svg width="24" height="24" viewBox="0 0 24 24" fill="none" xmlns="http://www.w3.org/2000/svg">
<g clip-path="url(#clip0_101_74)">
<path d="M9 12C8.20888 12 7.43552 12.2346 6.77772 12.6741C6.11992 13.1136 5.60723 13.7384 5.30448 14.4693C5.00173 15.2002 4.92252 16.0044 5.07686 16.7804C5.2312 17.5563 5.61216 18.269 6.17157 18.8284C6.73098 19.3878 7.44372 19.7688 8.21964 19.9231C8.99556 20.0775 9.79983 19.9983 10.5307 19.6955C11.2616 19.3928 11.8864 18.8801 12.3259 18.2223C12.7654 17.5645 13 16.7911 13 16V4C13 5.32608 13.5268 6.59785 14.4645 7.53553C15.4021 8.47322 16.6739 9 18 9" stroke="black" stroke-width="2" stroke-linecap="round" stroke-linejoin="round"/>
</g>
<defs>
<clipPath id="clip0_101_74">
<rect width="24" height="24" fill="white"/>
</clipPath>
</defs>
</svg>
