<svg width="24" height="24" viewBox="0 0 24 24" fill="none" xmlns="http://www.w3.org/2000/svg">
<g clip-path="url(#clip0_101_62)">
<path d="M22 4.01C21 4.5 20.02 4.699 19 5C17.879 3.735 16.217 3.665 14.62 4.263C13.023 4.861 11.977 6.323 12 8V9C8.755 9.083 5.865 7.605 4 5C4 5 -0.182 12.433 8 16C6.128 17.247 4.261 18.088 2 18C5.308 19.803 8.913 20.423 12.034 19.517C15.614 18.477 18.556 15.794 19.685 11.775C20.0218 10.5527 20.189 9.28986 20.182 8.022C20.18 7.773 21.692 5.25 22 4.009V4.01Z" stroke="black" stroke-width="2" stroke-linecap="round" stroke-linejoin="round"/>
</g>
<defs>
<clipPath id="clip0_101_62">
<rect width="24" height="24" fill="white"/>
</clipPath>
</defs>
</svg>
