<svg width="24" height="24" viewBox="0 0 24 24" fill="none" xmlns="http://www.w3.org/2000/svg">
<path fill-rule="evenodd" clip-rule="evenodd" d="M14.2 7.4C14.5314 6.95818 15.1582 6.86863 15.6 7.2C16.3452 7.75889 16.95 8.48359 17.3666 9.31672C17.7831 10.1499 18 11.0685 18 12C18 12.9315 17.7831 13.8502 17.3666 14.6833C16.95 15.5164 16.3452 16.2411 15.6 16.8C15.1582 17.1314 14.5314 17.0418 14.2 16.6C13.8686 16.1582 13.9582 15.5314 14.4 15.2C14.8968 14.8274 15.3 14.3443 15.5777 13.7889C15.8554 13.2334 16 12.621 16 12C16 11.379 15.8554 10.7666 15.5777 10.2111C15.3 9.65573 14.8968 9.17259 14.4 8.8C13.9582 8.46863 13.8686 7.84183 14.2 7.4Z" fill="black"/>
<path fill-rule="evenodd" clip-rule="evenodd" d="M16.9222 4.37146C17.2694 3.94191 17.899 3.87509 18.3285 4.22223C19.4885 5.15962 20.4241 6.34459 21.0668 7.69036C21.7096 9.03613 22.0431 10.5086 22.0431 12C22.0431 13.4914 21.7096 14.9639 21.0668 16.3096C20.4241 17.6554 19.4885 18.8404 18.3285 19.7778C17.899 20.1249 17.2694 20.0581 16.9222 19.6285C16.5751 19.199 16.6419 18.5694 17.0715 18.2222C17.9994 17.4723 18.7479 16.5243 19.2621 15.4477C19.7763 14.3711 20.0431 13.1931 20.0431 12C20.0431 10.8069 19.7763 9.62891 19.2621 8.55229C18.7479 7.47567 17.9994 6.52769 17.0715 5.77778C16.6419 5.43065 16.5751 4.80102 16.9222 4.37146Z" fill="black"/>
<path fill-rule="evenodd" clip-rule="evenodd" d="M10 5.48597L6.78935 9.61394C6.5999 9.85753 6.30859 10 6 10H4V14H6C6.30859 14 6.5999 14.1425 6.78935 14.3861L10 18.514V5.48597ZM9.53226 3.19917C9.93016 3.03711 10.3729 3.0227 10.7805 3.15856C11.1881 3.29442 11.5336 3.57159 11.7547 3.93998C11.9584 4.27945 12.044 4.67574 12 5.06732V18.9327C12.044 19.3243 11.9584 19.7206 11.7547 20.06C11.5336 20.4284 11.1881 20.7056 10.7805 20.8414C10.3729 20.9773 9.93016 20.9629 9.53226 20.8008C9.16889 20.6528 8.86481 20.3906 8.66499 20.0552L5.51092 16H4C3.46957 16 2.96086 15.7893 2.58579 15.4142C2.21071 15.0391 2 14.5304 2 14V10C2 9.46957 2.21071 8.96086 2.58579 8.58579C2.96086 8.21072 3.46957 8 4 8H5.51092L8.665 3.94476C8.86481 3.60943 9.16889 3.34718 9.53226 3.19917Z" fill="black"/>
</svg>
