<svg width="24" height="24" viewBox="0 0 24 24" fill="none" xmlns="http://www.w3.org/2000/svg">
<path fill-rule="evenodd" clip-rule="evenodd" d="M14.2 7.4C14.5314 6.95817 15.1582 6.86863 15.6 7.2C16.498 7.87348 17.189 8.78536 17.5946 9.83201C18.0002 10.8786 18.1041 12.0181 17.8944 13.1208C17.7912 13.6634 17.2678 14.0196 16.7252 13.9164C16.1826 13.8132 15.8264 13.2898 15.9296 12.7472C16.0694 12.0121 16.0001 11.2524 15.7298 10.5547C15.4594 9.85691 14.9987 9.24899 14.4 8.8C13.9582 8.46863 13.8686 7.84183 14.2 7.4ZM16.2422 14.829C16.6327 15.2195 16.6326 15.8527 16.242 16.2432C16.0415 16.4437 15.8269 16.6298 15.6001 16.8C15.1583 17.1314 14.5315 17.0419 14.2 16.6001C13.8686 16.1583 13.9581 15.5315 14.3999 15.2001C14.5512 15.0866 14.6942 14.9625 14.828 14.8288C15.2185 14.4383 15.8517 14.4384 16.2422 14.829Z" fill="black"/>
<path fill-rule="evenodd" clip-rule="evenodd" d="M16.9222 4.37145C17.2694 3.9419 17.899 3.87509 18.3286 4.22223C20.1118 5.66339 21.3457 7.67358 21.8235 9.91607C22.3013 12.1586 21.994 14.4971 20.953 16.54C20.7023 17.0321 20.1001 17.2277 19.608 16.977C19.1159 16.7263 18.9203 16.1241 19.171 15.632C20.0038 13.9977 20.2496 12.1268 19.8674 10.3328C19.4852 8.53885 18.4981 6.93069 17.0714 5.77777C16.6419 5.43063 16.5751 4.801 16.9222 4.37145ZM19.0955 17.6803C19.4847 18.0721 19.4826 18.7052 19.0907 19.0945C18.8485 19.3351 18.5941 19.5631 18.3286 19.7778C17.899 20.1249 17.2694 20.0581 16.9222 19.6286C16.5751 19.199 16.6419 18.5694 17.0714 18.2222C17.2839 18.0505 17.4874 17.8681 17.6813 17.6755C18.0731 17.2863 18.7062 17.2884 19.0955 17.6803Z" fill="black"/>
<path fill-rule="evenodd" clip-rule="evenodd" d="M10 5.48587L9.85828 5.66804C9.51915 6.10394 8.89087 6.1824 8.45496 5.84328C8.01906 5.50415 7.9406 4.87587 8.27972 4.43996L8.66503 3.94469C8.86485 3.60939 9.16891 3.34717 9.53226 3.19917C9.93016 3.0371 10.3729 3.0227 10.7805 3.15856C11.1881 3.29442 11.5336 3.57159 11.7547 3.93998C11.9584 4.27945 12.044 4.67574 12 5.06731V7C12 7.55228 11.5523 8 11 8C10.4477 8 10 7.55228 10 7V5.48587ZM7.90788 6.5466C8.34385 6.88563 8.42244 7.5139 8.0834 7.94987L6.7894 9.61387C6.59995 9.8575 6.30862 10 6 10H4V14H6C6.30859 14 6.5999 14.1425 6.78935 14.3861L10 18.514V11C10 10.4477 10.4477 10 11 10C11.5523 10 12 10.4477 12 11V18.9327C12.044 19.3243 11.9584 19.7206 11.7547 20.06C11.5336 20.4284 11.1881 20.7056 10.7805 20.8414C10.3729 20.9773 9.93016 20.9629 9.53226 20.8008C9.16889 20.6528 8.86481 20.3906 8.66499 20.0552L5.51092 16H4C3.46957 16 2.96086 15.7893 2.58579 15.4142C2.21071 15.0391 2 14.5304 2 14V10C2 9.46957 2.21071 8.96086 2.58579 8.58579C2.96086 8.21071 3.46957 8 4 8H5.51086L6.5046 6.72213C6.84363 6.28615 7.4719 6.20756 7.90788 6.5466Z" fill="black"/>
<path fill-rule="evenodd" clip-rule="evenodd" d="M2.29289 2.29289C2.68342 1.90237 3.31658 1.90237 3.70711 2.29289L21.7071 20.2929C22.0976 20.6834 22.0976 21.3166 21.7071 21.7071C21.3166 22.0976 20.6834 22.0976 20.2929 21.7071L2.29289 3.70711C1.90237 3.31658 1.90237 2.68342 2.29289 2.29289Z" fill="black"/>
</svg>
