<svg width="24" height="24" viewBox="0 0 24 24" fill="none" xmlns="http://www.w3.org/2000/svg">
<path fill-rule="evenodd" clip-rule="evenodd" d="M10 5.48597L6.78935 9.61394C6.5999 9.85753 6.30859 10 6 10H4V14H6C6.30859 14 6.5999 14.1425 6.78935 14.3861L10 18.514V5.48597ZM9.53226 3.19917C9.93016 3.03711 10.3729 3.0227 10.7805 3.15856C11.1881 3.29442 11.5336 3.57159 11.7547 3.93998C11.9584 4.27945 12.044 4.67574 12 5.06732V18.9327C12.044 19.3243 11.9584 19.7206 11.7547 20.06C11.5336 20.4284 11.1881 20.7056 10.7805 20.8414C10.3729 20.9773 9.93016 20.9629 9.53226 20.8008C9.16889 20.6528 8.86481 20.3906 8.66499 20.0552L5.51092 16H4C3.46957 16 2.96086 15.7893 2.58579 15.4142C2.21071 15.0391 2 14.5304 2 14V10C2 9.46957 2.21071 8.96086 2.58579 8.58579C2.96086 8.21072 3.46957 8 4 8H5.51092L8.665 3.94476C8.86481 3.60943 9.16889 3.34718 9.53226 3.19917Z" fill="black"/>
<path fill-rule="evenodd" clip-rule="evenodd" d="M15.2929 9.2929C15.6834 8.90237 16.3166 8.90237 16.7071 9.2929L18 10.5858L19.2929 9.2929C19.6834 8.90237 20.3166 8.90237 20.7071 9.2929C21.0976 9.68342 21.0976 10.3166 20.7071 10.7071L19.4142 12L20.7071 13.2929C21.0976 13.6834 21.0976 14.3166 20.7071 14.7071C20.3166 15.0976 19.6834 15.0976 19.2929 14.7071L18 13.4142L16.7071 14.7071C16.3166 15.0976 15.6834 15.0976 15.2929 14.7071C14.9024 14.3166 14.9024 13.6834 15.2929 13.2929L16.5858 12L15.2929 10.7071C14.9024 10.3166 14.9024 9.68342 15.2929 9.2929Z" fill="black"/>
</svg>
