<svg width="24" height="24" viewBox="0 0 24 24" fill="none" xmlns="http://www.w3.org/2000/svg">
<path fill-rule="evenodd" clip-rule="evenodd" d="M12 9C12.5523 9 13 9.44772 13 10V12C13 12.5523 12.5523 13 12 13C11.4477 13 11 12.5523 11 12V10C11 9.44772 11.4477 9 12 9ZM12 15C12.5523 15 13 15.4477 13 16V16.01C13 16.5623 12.5523 17.01 12 17.01C11.4477 17.01 11 16.5623 11 16.01V16C11 15.4477 11.4477 15 12 15Z" fill="black"/>
<path fill-rule="evenodd" clip-rule="evenodd" d="M10.4664 3.38396C10.928 3.11179 11.4541 2.96825 11.99 2.96825C12.5259 2.96825 13.052 3.11179 13.5136 3.38396C13.9721 3.65426 14.3504 4.04164 14.6097 4.50627L21.7052 16.7485C21.7287 16.7892 21.7494 16.8314 21.767 16.875C21.9506 17.3287 22.0203 17.8205 21.9702 18.3074C21.92 18.7943 21.7515 19.2615 21.4793 19.6683C21.2071 20.0751 20.8395 20.4092 20.4086 20.6413C19.9777 20.8734 19.4965 20.9965 19.007 21L19 21H5.00001C4.98173 21 4.96356 20.9995 4.94553 20.9985C4.91027 21.0005 4.87457 21.0005 4.83852 20.9987C4.36062 20.974 3.89554 20.8354 3.48211 20.5944C3.06869 20.3534 2.71891 20.017 2.462 19.6133C2.20508 19.2096 2.04847 18.7502 2.00525 18.2736C1.96202 17.797 2.03343 17.317 2.21352 16.8737C2.23102 16.8306 2.2515 16.7888 2.27482 16.7485L9.37033 4.5063C9.62963 4.04165 10.0079 3.65427 10.4664 3.38396ZM4.94476 19.0015C4.96305 19.0005 4.98147 19 5.00001 19H18.9959C19.1581 18.9984 19.3174 18.9574 19.4602 18.8805C19.6038 18.8031 19.7264 18.6917 19.8171 18.5561C19.9078 18.4205 19.964 18.2648 19.9807 18.1025C19.9954 17.9596 19.9792 17.8155 19.9333 17.6799L12.8748 5.50145L12.865 5.48412C12.7785 5.32782 12.6518 5.19754 12.4979 5.10682C12.344 5.01609 12.1686 4.96825 11.99 4.96825C11.8114 4.96825 11.636 5.01609 11.4821 5.10682C11.3283 5.19754 11.2015 5.32782 11.115 5.48412L11.1052 5.50145L4.04626 17.6806C4.00126 17.8129 3.98441 17.9534 3.99707 18.093C4.01148 18.2518 4.06368 18.405 4.14932 18.5395C4.23496 18.6741 4.35155 18.7862 4.48936 18.8666C4.62716 18.9469 4.78219 18.9931 4.94149 19.0013L4.94476 19.0015Z" fill="black"/>
</svg>
