<svg xmlns="http://www.w3.org/2000/svg" viewBox="0 0 383.38 493.56"><defs><style>.cls-1{fill:#6673ea;}</style></defs><g id="Layer_2" data-name="Layer 2"><g id="Workspace"><path class="cls-1" d="M295.29,283.11s7.07-22.73,29.28-45.14C342.28,220.08,383,189.76,383,189.76v112.3c0,105.76-85.73,191.5-191.5,191.5S0,407.82,0,302.06C0,197.64,75.79,133.24,139.39,118.53c104.7-24.22,99.79,122.84,99.79,122.84-11.08-8.47-32.89-14.81-47.18-14.81a75,75,0,1,0,75,75V0c0,.28,124.25,30,116,113.46-4.17,42.18-55,77.76-74.71,112.46C289,259.88,295.29,283.11,295.29,283.11Z"/></g></g></svg>