<svg width="1643" height="225" viewBox="0 0 1643 225" fill="none" xmlns="http://www.w3.org/2000/svg">
<g clip-path="url(#clip0)">
<path d="M1578.4 189.3C1572.7 184.5 1568.5 177.5 1568.5 167.8H1591.4C1591.8 175.9 1597.7 180.4 1605.3 180.4C1614.1 180.4 1619.4 176.8 1619.4 165.6V150.8C1615.4 158.6 1607.3 162.9 1596.4 162.9C1586.8 162.9 1579.5 159.3 1575.6 154.2C1571.1 148.7 1570.1 142.2 1570.1 131.9V90.1H1592.8V127.1C1592.8 137.4 1595.9 144.6 1605.5 144.6C1614.9 144.6 1619.4 137.4 1619.4 126.3V90.1H1642.3V164C1642.3 175.2 1638.4 183.9 1632.3 189C1625.9 194.4 1617.6 196.8 1605.1 196.8C1593.3 196.8 1584.8 194.5 1578.4 189.3Z" fill="#FFFFFF"/>
<path d="M1532.4 162.2V123.3C1532.4 113.6 1529.1 107.7 1521.3 107.7C1514.4 107.7 1509.2 112 1509.2 126V162.2H1487.1V123.1C1487.1 113.4 1484 107.7 1476.3 107.7C1469.3 107.7 1463.9 112.2 1463.9 126.4V162.2H1441.8V90.1H1463.9V100.6C1467 93.9 1474.7 88.3 1484.7 88.3C1497.3 88.3 1503.6 94 1506.5 101.3C1510.2 93.8 1518.5 88.3 1529.1 88.3C1550.1 88.3 1554.4 102.5 1554.4 117.8V162.2H1532.4Z" fill="#FFFFFF"/>
<path d="M1377.3 131.7C1377.7 140.4 1381.3 147.7 1393.3 147.7C1401.2 147.7 1405.1 144.1 1406.6 139.5H1429C1426.9 153.1 1414 164.2 1393.4 164.2C1368.1 164.2 1354.5 148.5 1354.5 126.2C1354.5 105.1 1367.8 88.2 1392.8 88.2C1415.4 88.2 1429.9 103.5 1429.9 121.1C1429.9 124.1 1429.9 127.4 1429.2 131.7H1377.3ZM1377.3 118.5H1407.5C1407.5 109.2 1401.4 103.4 1392.7 103.4C1383.7 103.4 1377.3 108.8 1377.3 118.5Z" fill="#FFFFFF"/>
<path d="M1320.6 152C1317.2 158.6 1307.9 164 1298.6 164C1277.8 164 1263.4 147.7 1263.4 126.1C1263.4 104.5 1277.8 88.2 1298.6 88.2C1307.9 88.2 1317.2 93.7 1320.6 100.3V57.5H1343.5V162.3H1320.6V152ZM1320.6 126.1C1320.6 116.2 1313.7 107.7 1303.4 107.7C1293.1 107.7 1286.2 116.2 1286.2 126.1C1286.2 136.1 1293.1 144.5 1303.4 144.5C1313.7 144.5 1320.6 136.2 1320.6 126.1Z" fill="#FFFFFF"/>
<path d="M1252.2 90.1V162.2H1229.3V152C1225.9 158.6 1216.6 164 1207.3 164C1186.5 164 1172.1 147.7 1172.1 126.1C1172.1 104.5 1186.5 88.2 1207.3 88.2C1216.6 88.2 1225.9 93.7 1229.3 100.3V90.1H1252.2ZM1229.3 126.1C1229.3 116.2 1222.4 107.7 1212.1 107.7C1201.8 107.7 1194.9 116.2 1194.9 126.1C1194.9 136.1 1201.8 144.5 1212.1 144.5C1222.4 144.5 1229.3 136.2 1229.3 126.1Z" fill="#FFFFFF"/>
<path d="M1142.6 118.4C1141.7 112 1137.7 107.6 1128.4 107.6C1117.5 107.6 1112.4 116.3 1112.4 126.2C1112.4 136.2 1117.3 144.8 1129.3 144.8C1137.2 144.8 1140.8 141.4 1142.8 135.2H1165.7C1163.5 151.5 1151.2 164.2 1128.3 164.2C1103 164.2 1089.5 146.2 1089.5 126.2C1089.5 106.3 1103 88.2 1128.3 88.2C1152.7 88.2 1164.1 102.9 1165.6 118.4H1142.6Z" fill="#FFFFFF"/>
<path d="M1078.6 90.1V162.2H1055.7V152C1052.3 158.6 1043 164 1033.7 164C1012.9 164 998.5 147.7 998.5 126.1C998.5 104.5 1012.9 88.2 1033.7 88.2C1043 88.2 1052.3 93.7 1055.7 100.3V90.1H1078.6ZM1055.7 126.1C1055.7 116.2 1048.8 107.7 1038.5 107.7C1028.2 107.7 1021.3 116.2 1021.3 126.1C1021.3 136.1 1028.2 144.5 1038.5 144.5C1048.8 144.5 1055.7 136.2 1055.7 126.1Z" fill="#FFFFFF"/>
<path d="M961.9 162.2C958.5 162.8 953.4 163.4 946.6 163.4C935.8 163.4 921 162.1 921 138V107.2H909.6V90.1H921V68.7H943.7V90.1H960.2V107.2H943.7V132.9C943.7 143.5 947.9 145.2 953.6 145.2C956.4 145.2 959.7 145.1 961.8 144.8V162.2H961.9Z" fill="#FFFFFF"/>
<path d="M901.1 90.1V162.2H878.2V152C874.8 158.6 865.5 164 856.2 164C835.4 164 821 147.7 821 126.1C821 104.5 835.4 88.2 856.2 88.2C865.5 88.2 874.8 93.7 878.2 100.3V90.1H901.1ZM878.2 126.1C878.2 116.2 871.3 107.7 861 107.7C850.7 107.7 843.8 116.2 843.8 126.1C843.8 136.1 850.7 144.5 861 144.5C871.3 144.6 878.2 136.2 878.2 126.1Z" fill="#FFFFFF"/>
<path d="M761 131.7C761.4 140.4 765 147.7 777 147.7C784.9 147.7 788.8 144.1 790.3 139.5H812.7C810.6 153.1 797.7 164.2 777.1 164.2C751.8 164.2 738.2 148.5 738.2 126.2C738.2 105.1 751.5 88.2 776.5 88.2C799.1 88.2 813.6 103.5 813.6 121.1C813.6 124.1 813.6 127.4 812.9 131.7H761ZM761 118.5H791.2C791.2 109.2 785.1 103.4 776.4 103.4C767.5 103.4 761 108.8 761 118.5Z" fill="#FFFFFF"/>
<path d="M674.3 162.2H651.4V57.5H674.3V100.4C677.7 93.8 687 88.3 696.4 88.3C717.2 88.3 731.6 104.6 731.6 126.2C731.6 147.7 717.2 164.1 696.4 164.1C687 164.1 677.7 158.7 674.3 152.1V162.2ZM708.7 126.1C708.7 116.2 701.8 107.7 691.6 107.7C681.1 107.7 674.2 116.2 674.2 126.1C674.2 136.1 681.1 144.5 691.6 144.5C701.8 144.6 708.7 136.2 708.7 126.1Z" fill="#FFFFFF"/>
<path d="M564.3 90.1H587.2V100.6C591.2 92.8 599.6 88.3 610.8 88.3C620.1 88.3 627.1 91.4 631 96.5C635.5 102 636.7 109.1 636.7 119.4V162.2H613.8V125.2C613.8 114.9 610.7 107.7 601.1 107.7C591.8 107.7 587.2 114.9 587.2 126V162.2H564.3V90.1Z" fill="#FFFFFF"/>
<path d="M498.3 116.3L483.5 162.2H464.9L438 90.1H461.6L474.9 133.1L487.6 90.1H508.7L521.4 133.1L534.7 90.1H558.3L531.4 162.2H512.8L498.3 116.3Z" fill="#FFFFFF"/>
<path d="M359 126.1C359 105.4 374.1 88.1 399 88.1C424.1 88.1 439.1 105.5 439.1 126.1C439.1 146.7 424.1 164.1 399 164.1C374.1 164.2 359 146.8 359 126.1ZM416.3 126.1C416.3 116.1 409.4 107.7 398.9 107.7C388.6 107.7 381.8 116.1 381.8 126.1C381.8 136.3 388.5 144.5 398.9 144.5C409.4 144.6 416.3 136.3 416.3 126.1Z" fill="#FFFFFF"/>
<path d="M325.3 152C321.9 158.6 312.6 164 303.3 164C282.5 164 268.1 147.7 268.1 126.1C268.1 104.5 282.5 88.2 303.3 88.2C312.6 88.2 321.9 93.7 325.3 100.3V57.5H348.2V162.3H325.3V152ZM325.3 126.1C325.3 116.2 318.4 107.7 308.1 107.7C297.8 107.7 290.9 116.2 290.9 126.1C290.9 136.1 297.8 144.5 308.1 144.5C318.4 144.5 325.3 136.2 325.3 126.1Z" fill="#FFFFFF"/>
<path d="M174.018 128.047C174.018 128.047 177.24 117.699 187.315 107.489C195.348 99.3292 213.819 85.5174 213.819 85.5174C213.819 85.5174 213.819 136.753 213.819 136.708C213.819 184.935 174.926 224 126.91 224C78.8938 224 40 184.889 40 136.708C40 89.1185 74.4008 59.7628 103.265 53.062C150.782 42.0308 148.558 109.038 148.558 109.038C143.52 105.164 133.626 102.292 127.137 102.292C108.348 102.292 93.0989 117.608 93.0989 136.48C93.0989 155.351 108.348 170.667 127.137 170.667C145.925 170.667 161.174 155.351 161.174 136.48V-1C161.174 -0.86325 217.586 12.675 213.819 50.7372C211.913 69.9735 188.858 86.2012 179.918 102.019C171.159 117.471 174.018 128.047 174.018 128.047Z" fill="#FFFFFF"/>
</g>
<defs>
<clipPath id="clip0">
<path d="M0 0H1642.3V225H0V0Z" fill="white"/>
</clipPath>
</defs>
</svg>
